<svg   id="chart"   width="120"   height="120"   viewBox="0 0 120 120"   xmlns="http://www.w3.org/2000/svg" >      <path d="M 0,11.795992092433238 C 4.8,14.001154768890055 14.399999999999999,18.83006723497445 24,22.821805474717323 C 33.6,26.8135437144602 38.4,26.84743402693338 48,31.75468329114761 C 57.6,36.66193255536184 62.4,38.15866884405601 72,47.35805179578846 C 81.6,56.557434747520915 86.4,68.68381363963317 96,77.7515980498099 C 105.6,86.81938245998663 115.2,89.70789868729969 120,92.69697384667214,L 120 120,L 0 120Z" fill="#6b6b6b1a" />   <path d="M 0,11.795992092433238 C 4.8,14.001154768890055 14.399999999999999,18.83006723497445 24,22.821805474717323 C 33.6,26.8135437144602 38.4,26.84743402693338 48,31.75468329114761 C 57.6,36.66193255536184 62.4,38.15866884405601 72,47.35805179578846 C 81.6,56.557434747520915 86.4,68.68381363963317 96,77.7515980498099 C 105.6,86.81938245998663 115.2,89.70789868729969 120,92.69697384667214" fill="none" stroke="#6b6b6b" stroke-width="2px" />   <g>      </g> </svg>