<svg   id="chart"   width="120"   height="120"   viewBox="0 0 120 120"   xmlns="http://www.w3.org/2000/svg" >      <path d="M 0,116.22120024494326 C 4.8,112.48507631984572 14.400000000000002,104.29498077209952 24,97.54058061945553 C 33.6,90.78618046681153 38.4,87.25632313363981 48,82.44919948172331 C 57.6,77.64207582980681 62.4,76.15886074988617 72,73.504962359873 C 81.6,70.85106396985984 86.4,80.76623901462324 96,69.17970753165747 C 105.6,57.5931760486917 115.2,26.293785462366827 120,15.572304945044168,L 120 120,L 0 120Z" fill="#6b6b6b1a" />   <path d="M 0,116.22120024494326 C 4.8,112.48507631984572 14.400000000000002,104.29498077209952 24,97.54058061945553 C 33.6,90.78618046681153 38.4,87.25632313363981 48,82.44919948172331 C 57.6,77.64207582980681 62.4,76.15886074988617 72,73.504962359873 C 81.6,70.85106396985984 86.4,80.76623901462324 96,69.17970753165747 C 105.6,57.5931760486917 115.2,26.293785462366827 120,15.572304945044168" fill="none" stroke="#6b6b6b" stroke-width="2px" />   <g>      </g> </svg>