<svg   id="chart"   width="120"   height="120"   viewBox="0 0 120 120"   xmlns="http://www.w3.org/2000/svg" >      <path d="M 0,117.79530888425509 C 4.8,114.27329191650358 14.4,107.93029601277117 24,100.18522404549755 C 33.6,92.44015207822393 38.400000000000006,85.12111387833237 48,79.06994904788702 C 57.6,73.01878421744169 62.4,73.82578095298659 72,69.92939989327087 C 81.6,66.03301883355516 86.4,68.85303807934025 96,59.588043749308454 C 105.6,50.32304941927666 115.2,30.80115134435121 120,23.604428243111897,L 120 120,L 0 120Z" fill="#6b6b6b1a" />   <path d="M 0,117.79530888425509 C 4.8,114.27329191650358 14.4,107.93029601277117 24,100.18522404549755 C 33.6,92.44015207822393 38.400000000000006,85.12111387833237 48,79.06994904788702 C 57.6,73.01878421744169 62.4,73.82578095298659 72,69.92939989327087 C 81.6,66.03301883355516 86.4,68.85303807934025 96,59.588043749308454 C 105.6,50.32304941927666 115.2,30.80115134435121 120,23.604428243111897" fill="none" stroke="#6b6b6b" stroke-width="2px" />   <g>      </g> </svg>