<svg   id="chart"   width="120"   height="120"   viewBox="0 0 120 120"   xmlns="http://www.w3.org/2000/svg" >      <path d="M 0,11.472896257779308 C 4.800000000000001,13.857244340352127 14.399999999999999,17.67970109774768 24,23.3946366706434 C 33.6,29.109572243539123 38.4,36.806443558093584 48,40.04757412225792 C 57.6,43.28870468642226 62.4,36.23780158035364 72,39.60028949146507 C 81.6,42.9627774025765 86.4,51.31073435761393 96,56.86001367781507 C 105.6,62.409292998016205 115.2,65.24935160953962 120,67.34668609247075,L 120 120,L 0 120Z" fill="#6b6b6b1a" />   <path d="M 0,11.472896257779308 C 4.800000000000001,13.857244340352127 14.399999999999999,17.67970109774768 24,23.3946366706434 C 33.6,29.109572243539123 38.4,36.806443558093584 48,40.04757412225792 C 57.6,43.28870468642226 62.4,36.23780158035364 72,39.60028949146507 C 81.6,42.9627774025765 86.4,51.31073435761393 96,56.86001367781507 C 105.6,62.409292998016205 115.2,65.24935160953962 120,67.34668609247075" fill="none" stroke="#6b6b6b" stroke-width="2px" />   <g>      </g> </svg>