<svg xmlns="http://www.w3.org/2000/svg" id="chart" viewBox="0 130.67 877.44 669.33">     		     <path d="  M0,800  h146.24  v-491.9404247083419  q0,-44 -44,-44  h-58.24000000000001  q-44,0 -44,44  Z" fill="#ffffff"/> <path d="  M182.8,800  h146.24  v-600.484013528229  q0,-44 -44,-44  h-58.24000000000001  q-44,0 -44,44  Z" fill="#ffffff"/> <path d="  M365.6,800  h146.24  v-468.49337094139094  q0,-44 -44,-44  h-58.24000000000001  q-44,0 -44,44  Z" fill="#ffffff"/> <path d="  M548.4000000000001,800  h146.24  v-279.268437417333  q0,-44 -44,-44  h-58.24000000000001  q-44,0 -44,44  Z" fill="#ffffff"/> <path d="  M731.2,800  h146.24  v-625.3272790065637  q0,-44 -44,-44  h-58.24000000000001  q-44,0 -44,44  Z" fill="#ffffff"/> </svg>